<?xml version="1.0" standalone="no"?><!DOCTYPE svg PUBLIC "-//W3C//DTD SVG 1.1//EN" "http://www.w3.org/Graphics/SVG/1.1/DTD/svg11.dtd"><svg t="1562807982859" class="icon" viewBox="0 0 1118 1024" version="1.1" xmlns="http://www.w3.org/2000/svg" p-id="1182" xmlns:xlink="http://www.w3.org/1999/xlink" width="34.9375" height="32"><defs><style type="text/css"></style></defs><path d="M279.089901 302.41254l-0.912058 447.951017h558.700978l1.042352-447.951017L558.310096 23.192345 279.089901 302.41254z" fill="#9ED36A" p-id="1183"></path><path d="M488.472474 397.13633H628.017424v219.415216H488.472474zM196.353166 408.34162a23.192345 23.192345 0 0 1-16.417053-6.775292 23.452933 23.452933 0 0 1 0-32.9644L541.762749 6.775292a23.452933 23.452933 0 0 1 32.9644 0 23.322639 23.322639 0 0 1 0 32.9644L212.900513 401.566328a23.322639 23.322639 0 0 1-16.547347 6.775292z" fill="#424953" p-id="1184"></path><path d="M920.136732 408.34162a22.931757 22.931757 0 0 1-16.417053-6.775292L541.762749 39.739692a23.452933 23.452933 0 0 1 0-32.9644 23.452933 23.452933 0 0 1 32.9644 0l361.826636 361.826636a23.322639 23.322639 0 0 1 0 32.9644 22.931757 22.931757 0 0 1-16.417053 6.775292z" fill="#424953" p-id="1185"></path><path d="M1010.9517 634.27154l-66.840858-6.775292-114.919371-52.117629-77.003797 59.153509-62.541154 13.029407-106.059374-53.811451-39.088221-8.729703-71.270858 39.088221-49.511747 9.772056L327.68959 612.382136l-56.677921-37.785281s-21.498522 39.088221-38.436751 43.648514-83.779088 24.62558-83.779088 24.625579l-47.948219-9.120585L0 583.847734v439.612197h1116.620192V583.847734z" fill="#4A89DC" p-id="1186"></path><path d="M0 782.806781a26.058814 26.058814 0 0 1 13.029407 2.736176l62.150272 41.433514a117.264664 117.264664 0 0 0 65.147036 18.501759 117.264664 117.264664 0 0 0 64.495565-18.501759l62.150272-41.433514a26.058814 26.058814 0 0 1 13.029408-2.736176 26.970873 26.970873 0 0 1 13.029407 2.736176l62.150272 41.433514a121.694663 121.694663 0 0 0 128.99113 0l62.150273-41.433514a31.791753 31.791753 0 0 1 26.058814 0l62.150272 41.433514a121.694663 121.694663 0 0 0 128.991131 0l62.150272-41.433514a32.052342 32.052342 0 0 1 26.058814 0l62.150272 41.433514a121.694663 121.694663 0 0 0 128.991131 0l62.150272-41.433514a26.058814 26.058814 0 0 1 13.029407-2.736176v-46.514983a70.489093 70.489093 0 0 0-39.088221 10.553819L1016.293757 788.279132a75.440267 75.440267 0 0 1-77.394678 0l-62.150272-41.433515a76.222032 76.222032 0 0 0-77.394679 0l-62.541154 41.433515a75.700856 75.700856 0 0 1-77.524973 0l-62.150272-41.433515a76.222032 76.222032 0 0 0-77.394678 0l-62.150272 41.433515a75.440267 75.440267 0 0 1-77.394679 0l-62.150272-41.433515a76.222032 76.222032 0 0 0-77.394678 0L178.502878 788.279132a70.228505 70.228505 0 0 1-39.088222 10.684114 69.967916 69.967916 0 0 1-39.088221-10.684114L39.088221 746.845617a71.531445 71.531445 0 0 0-39.088221-10.553819zM0 604.82508a24.495285 24.495285 0 0 1 13.029407 2.866469l62.150272 41.433515a117.264664 117.264664 0 0 0 65.147036 18.371464 117.264664 117.264664 0 0 0 64.495565-18.371464l62.150272-41.433515a24.62558 24.62558 0 0 1 13.029408-2.866469 25.016462 25.016462 0 0 1 13.029407 2.866469l62.150272 41.433515a122.346133 122.346133 0 0 0 128.99113 0l62.150273-41.433515a30.488813 30.488813 0 0 1 26.058814 0l62.150272 41.433515a122.346133 122.346133 0 0 0 128.991131 0l62.150272-41.433515a30.749401 30.749401 0 0 1 26.058814 0l62.150272 41.433515a122.346133 122.346133 0 0 0 128.991131 0l62.150272-41.433515a24.495285 24.495285 0 0 1 13.029407-2.866469v-46.514984a69.44674 69.44674 0 0 0-39.088221 10.684114L1016.293757 610.427725a76.222032 76.222032 0 0 1-77.394678 0l-62.150272-41.433515a75.440267 75.440267 0 0 0-77.394679 0l-62.150272 41.433515a76.48262 76.48262 0 0 1-77.524972 0l-62.150272-41.433515a75.440267 75.440267 0 0 0-77.394679 0l-62.150272 41.433515a76.222032 76.222032 0 0 1-77.394678 0l-62.150272-41.433515a70.489093 70.489093 0 0 0-39.088222-10.684114 70.228505 70.228505 0 0 0-39.088221 10.684114l-61.75939 41.433515a71.270857 71.270857 0 0 1-39.088222 10.553819 70.879975 70.879975 0 0 1-39.088221-10.553819L39.088221 568.99421a70.489093 70.489093 0 0 0-39.088221-10.684114zM0 960.788483A24.495285 24.495285 0 0 1 13.029407 964.176129l62.150272 41.433514a117.264664 117.264664 0 0 0 65.147036 18.371464 117.264664 117.264664 0 0 0 64.495565-18.371464L266.451376 964.176129a24.62558 24.62558 0 0 1 13.029407-2.86647 25.016462 25.016462 0 0 1 13.029407 2.86647l62.150272 41.433514a122.346133 122.346133 0 0 0 128.991131 0L545.541277 964.176129a30.488813 30.488813 0 0 1 26.058814 0l62.150272 41.433514a122.346133 122.346133 0 0 0 128.991131 0L824.631178 964.176129a30.749401 30.749401 0 0 1 26.058814 0l62.150272 41.433514a122.346133 122.346133 0 0 0 128.991131 0L1103.851373 964.176129a24.495285 24.495285 0 0 1 13.029407-2.86647v-47.03616a69.44674 69.44674 0 0 0-39.088221 10.684114L1016.293757 966.391128a76.222032 76.222032 0 0 1-77.394678 0L876.357924 925.087907a75.700856 75.700856 0 0 0-78.176442 0l-62.019978 41.433515a76.48262 76.48262 0 0 1-77.524973 0L597.137729 925.087907a75.440267 75.440267 0 0 0-77.394678 0l-62.150272 41.433515a76.222032 76.222032 0 0 1-77.394679 0L318.047828 925.087907a70.489093 70.489093 0 0 0-39.088221-10.684114 70.228505 70.228505 0 0 0-39.088221 10.684114l-61.368508 41.303221a71.531445 71.531445 0 0 1-39.088222 10.55382 70.879975 70.879975 0 0 1-39.088221-10.55382L39.088221 925.087907a70.489093 70.489093 0 0 0-39.088221-10.684114z" fill="#5D9CEC" p-id="1187"></path></svg>