<?xml version="1.0" standalone="no"?><!DOCTYPE svg PUBLIC "-//W3C//DTD SVG 1.1//EN" "http://www.w3.org/Graphics/SVG/1.1/DTD/svg11.dtd"><svg t="1562808180956" class="icon" viewBox="0 0 1024 1024" version="1.1" xmlns="http://www.w3.org/2000/svg" p-id="8003" xmlns:xlink="http://www.w3.org/1999/xlink" width="32" height="32"><defs><style type="text/css"></style></defs><path d="M700.928 379.904A358.4 358.4 0 0 0 512 318.976a358.4 358.4 0 0 0-188.928 60.928 409.6 409.6 0 0 0-75.264 63.488 381.44 381.44 0 0 0-51.2 68.096 409.6 409.6 0 0 0 125.44 131.072A347.136 347.136 0 0 0 512 705.024a347.136 347.136 0 0 0 188.928-62.464A391.68 391.68 0 0 0 826.368 512a381.44 381.44 0 0 0-51.2-68.096 498.688 498.688 0 0 0-74.24-64zM512 608.768A96.256 96.256 0 1 1 608.256 512 96.768 96.768 0 0 1 512 608.768z" fill="#27A3FF" p-id="8004"></path><path d="M512 450.56a63.488 63.488 0 1 0 63.488 61.44A62.976 62.976 0 0 0 512 450.56z" fill="#27A3FF" p-id="8005"></path><path d="M921.6 0H102.4a102.4 102.4 0 0 0-102.4 102.4v819.2a102.4 102.4 0 0 0 102.4 102.4h819.2a102.4 102.4 0 0 0 102.4-102.4V102.4a102.4 102.4 0 0 0-102.4-102.4z m-64.512 524.288A422.4 422.4 0 0 1 512 737.792a422.4 422.4 0 0 1-345.088-213.504L160.256 512l6.656-11.776A421.376 421.376 0 0 1 512 286.208a421.376 421.376 0 0 1 345.088 214.528l6.656 11.776z" fill="#27A3FF" p-id="8006"></path></svg>